# xmcd
#
# Track frame offsets: 
#        150
#        47271
#        53265
#        68136
#        86952
#        110937
#        157924
#        174172
#        188723
#        210867
#        219555
#        234751
#        263189
#
# Disc length: 4000 seconds
#
# Revision: 0
# Processed by: cddbd v1.5.2PL0 Copyright (c) Steve Scherf et al.
# Submitted via: ExactAudioCopy v0.95b4
#
DISCID=a00f9e0d
DTITLE=K-Ci and JoJo  - X
DYEAR=2000
DGENRE=
TTITLE0=Honest Lover
TTITLE1=Wanna Do Right
TTITLE2=Get Back
TTITLE3=Crazy
TTITLE4=Game Face
TTITLE5=Thug N U Thug N Me
TTITLE6=If It's Going To Work
TTITLE7=All The Things I Should Have Known
TTITLE8=I Can't Find The Words
TTITLE9=Something Inside Of Me
TTITLE10=One Last Time
TTITLE11=Suicide
TTITLE12=Ooh Yeah
EXTD=
EXTT0=
EXTT1=
EXTT2=
EXTT3=
EXTT4=
EXTT5=
EXTT6=
EXTT7=
EXTT8=
EXTT9=
EXTT10=
EXTT11=
EXTT12=
PLAYORDER=
